<svg id="Layer_2" data-name="Layer 2" xmlns="http://www.w3.org/2000/svg" xmlns:xlink="http://www.w3.org/1999/xlink" viewBox="0 0 109.98 108.29"><defs><style>.cls-1{fill:#fff;}.cls-2{clip-path:url(#clip-path);}.cls-3{fill:#002545;}.cls-4{fill:#cce3ff;}.cls-5{fill:#fad8b4;}.cls-6{fill:#000839;}.cls-7{fill:#002f56;}.cls-8{fill:#cbdbff;}.cls-9{fill:#da2624;}.cls-10{fill:#ff363a;}.cls-11{fill:#fabea6;}.cls-12{fill:#fbb09a;}.cls-13{fill:#0ef;}.cls-14{fill:#00d3ff;}.cls-15{fill:#e4edff;}.cls-16{fill:#fbbda5;}.cls-17{fill:#fac8a4;}.cls-18{fill:#00375a;}.cls-19{fill:#ff4867;}</style><clipPath id="clip-path"><circle class="cls-1" cx="54.13" cy="46.63" r="46.63"/></clipPath></defs><circle class="cls-1" cx="54.13" cy="46.63" r="46.63"/><g class="cls-2"><path class="cls-3" d="M34.83,19.85S33.94,9.52,43.75,11c0,0,19.93-17.09,29.7,7.43-8.07,13.34-21.8,1.39-21.8,1.39"/><polyline class="cls-3" points="44.29 10.39 42.71 6.84 42.71 10.74 38.48 7.91 40.78 12.05 43.82 12.05"/><path class="cls-4" d="M73.74,35.39a1.11,1.11,0,0,1-1.11-1.11V25.49c0-5.15-2-9-6-11.57-3.22-2-7.77-3.15-12.81-3.15-16.12,0-17.9,12.81-18,13.85v8.16a1.11,1.11,0,0,1-2.22,0V24.56a.34.34,0,0,1,0-.1,18.38,18.38,0,0,1,3.11-8c2.49-3.62,7.49-7.93,17.12-7.93,3.86,0,9.42.6,14,3.49s7.07,7.56,7.07,13.45v8.79A1.12,1.12,0,0,1,73.74,35.39Z"/><circle class="cls-5" cx="54.32" cy="36.05" r="19.5" transform="translate(-9.58 48.97) rotate(-45)"/><path class="cls-6" d="M35.21,71.78h0A18.72,18.72,0,0,0,26,87.92V117h18.8l.7-16.73L43.75,87.47l-4.16-9.58"/><polygon class="cls-7" points="45.8 65.07 35.02 70.9 39.9 93.13 43.75 94.39 39.01 95.42 45.23 120.14 47.05 109.67 45.8 65.07"/><path class="cls-6" d="M73.59,71.78h0a18.72,18.72,0,0,1,9.24,16.14V117H64l-.7-16.73,1.72-12.82,4.16-9.58"/><polygon class="cls-7" points="63 65.07 73.78 70.9 68.9 93.13 65.05 94.39 69.79 95.42 63.57 120.14 61.75 109.67 63 65.07"/><polyline class="cls-8" points="44.09 70.9 47.05 109.67 56.42 92.2 54.2 80.62 54.2 73.82"/><polyline class="cls-8" points="64.51 70.9 61.55 109.67 52.19 92.2 54.4 80.62 54.4 73.82"/><polygon class="cls-9" points="54.4 117.02 61.75 109.67 54.4 73.82 47.05 109.67 54.4 117.02"/><rect class="cls-10" x="49.4" y="69.01" width="9.61" height="9.61" transform="translate(-36.32 59.95) rotate(-45)"/><rect class="cls-11" x="46.71" y="42.41" width="15.21" height="28.49"/><path class="cls-12" d="M61.12,65.89q.43-.33.81-.66V58.45l-7.53-.92L46.71,62A17.75,17.75,0,0,0,61.12,65.89Z"/><path class="cls-13" d="M34.46,34.28h-.39a5.58,5.58,0,0,0-5.26,5.63v5.26a6.86,6.86,0,0,0,12.41-4.47A6.91,6.91,0,0,0,34.46,34.28Z"/><path class="cls-14" d="M31.21,41.92V35.27a5.68,5.68,0,0,0-2.4,4.65v5.26l.18.24,1.31-1.31A3.1,3.1,0,0,0,31.21,41.92Z"/><rect class="cls-15" x="32.64" y="32.63" width="5.85" height="16.98" rx="2.92"/><path class="cls-13" d="M74.3,34.28h.39A5.59,5.59,0,0,1,80,39.92v5.26a6.87,6.87,0,1,1-5.66-10.9Z"/><path class="cls-14" d="M77.52,35.24v6.68a3.06,3.06,0,0,0,.91,2.19l1.32,1.33.21-.26V39.92A5.73,5.73,0,0,0,77.52,35.24Z"/><rect class="cls-3" x="79.98" y="30.98" width="0.56" height="10.45" rx="0.28"/><path class="cls-15" d="M80.9,31.24a.67.67,0,0,1-.66.66.66.66,0,0,1-.65-.66.65.65,0,0,1,.65-.65A.66.66,0,0,1,80.9,31.24Z"/><path class="cls-15" d="M73.2,49.61h0a2.92,2.92,0,0,0,2.92-2.92V35.56a2.93,2.93,0,0,0-2.92-2.93h0a2.93,2.93,0,0,0-2.92,2.93V46.69A2.92,2.92,0,0,0,73.2,49.61Z"/><path class="cls-5" d="M54.33,63.53h0A19.5,19.5,0,0,1,34.83,44V35.39l13.49-6.7,25.5,6.7V44A19.5,19.5,0,0,1,54.33,63.53Z"/><path class="cls-16" d="M54.33,51.37h0a3.09,3.09,0,0,1-3.08-3.08V43.93a3.09,3.09,0,0,1,3.08-3.08h0a3.09,3.09,0,0,1,3.08,3.08v4.36A3.09,3.09,0,0,1,54.33,51.37Z"/><path class="cls-17" d="M39.46,26.26s2.37,9.43,12.19,9.19l-.76-2.82S56,38,65.26,35.45l-.71-1.17A6.35,6.35,0,0,0,70,32.21C65.26,28,55.61,26.26,55.61,26.26"/><path class="cls-3" d="M34.7,41.58s5-4.76,4.76-15.32c0,0,1.13,6.16,10.57,8l-1.35-5.14a19.43,19.43,0,0,0,15,4.42L61.92,30a10.66,10.66,0,0,0,8,2.23s.6,6.1,3.87,9.37V23.88a15.75,15.75,0,0,0-7.34-10.95A25.88,25.88,0,0,0,50.3,10.35c-4.22.81-7.29,1.85-10.67,5.14A15.43,15.43,0,0,0,34.7,26.85Z"/><path class="cls-18" d="M45.23,27.19l1.26-4.11s4.81,7.48,13.18,6.52l-1.82-5.1s4.61,4.06,12.5,2.58L68.63,23.4a3.92,3.92,0,0,0,3.16.06l-1.76-2,.32,1.42A4,4,0,0,1,67.61,22l1,3.81A18.79,18.79,0,0,1,56,22.14l1.81,6.16s-8.72-1.16-12-7.22Z"/><path class="cls-1" d="M54.24,70.9a9.37,9.37,0,0,1-7.53-7.19,12.58,12.58,0,0,0-2.62,7.19,13.88,13.88,0,0,0,4.1,6.31Z"/><path class="cls-1" d="M54.4,70.9a9.37,9.37,0,0,0,7.53-7.19,12.58,12.58,0,0,1,2.62,7.19,13.9,13.9,0,0,1-4.09,6.31Z"/><path class="cls-3" d="M50.89,58.33c-5.59,0-13.45-1.11-19.13-6.39a16.32,16.32,0,0,1-4.48-6.53.85.85,0,0,1,0-.23V42.41a.79.79,0,0,1,.79-.8.8.8,0,0,1,.8.8v2.64a15.46,15.46,0,0,0,4.07,5.79c4.2,3.86,10.41,5.9,18,5.9a.79.79,0,0,1,.79.79A.79.79,0,0,1,50.89,58.33Z"/><path class="cls-13" d="M49.3,58.94H53a1.41,1.41,0,0,0,1.41-1.41h0A1.41,1.41,0,0,0,53,56.12H49.3a1.41,1.41,0,0,0-1.41,1.41h0A1.41,1.41,0,0,0,49.3,58.94Z"/></g><path class="cls-19" d="M12.47,103.92H97.52A12.5,12.5,0,0,0,110,91.45h0A12.5,12.5,0,0,0,97.52,79h-85A12.5,12.5,0,0,0,0,91.45H0A12.5,12.5,0,0,0,12.47,103.92Z"/><path class="cls-1" d="M12.53,90.59a.82.82,0,0,0-.57-.85,1.33,1.33,0,0,1-1.3.77,1.3,1.3,0,0,1-1.28-.77.82.82,0,0,0-.57.85v3c0,.13,0,.34-.05.61s-.07.62-.12,1h0c.05-.13.13-.32.24-.54l.4-.83.95-1.54h-1l.41-1.2h2.13v1.18L9.15,96.67h-2V90.55a2.13,2.13,0,0,1,.17-.88A2,2,0,0,1,7.84,89a2.47,2.47,0,0,1,.81-.47,3.18,3.18,0,0,1,1.06-.17.73.73,0,0,0,.08.33,1.09,1.09,0,0,0,.22.26,1.11,1.11,0,0,0,.3.17,1,1,0,0,0,.35.06,1.13,1.13,0,0,0,.36-.06,1,1,0,0,0,.31-.17,1.09,1.09,0,0,0,.22-.26.73.73,0,0,0,.08-.33,2.76,2.76,0,0,1,1.9.66,2.06,2.06,0,0,1,.66,1.57v6.12H12.53Z"/><path class="cls-1" d="M8.52,86.26h5.67V87.6H8.52Z"/><path class="cls-1" d="M21,91A1.26,1.26,0,0,0,20.48,90a1.91,1.91,0,0,0-.59-.29,3,3,0,0,0-.75-.1,2.43,2.43,0,0,0-.73.11,1.91,1.91,0,0,0-.59.29,1.32,1.32,0,0,0-.39.46,1.16,1.16,0,0,0-.14.58v2.52a5.07,5.07,0,0,1,0,.58c0,.25-.06.56-.11.92h0a5.14,5.14,0,0,1,.24-.52c.11-.21.25-.48.4-.8l.93-1.48h-1l.41-1.2h2.13v1.18l-2.75,4.43H15.64V91a2.29,2.29,0,0,1,1-1.92,4.16,4.16,0,0,1,2.52-.74,5,5,0,0,1,1.42.2,3.59,3.59,0,0,1,1.11.54,2.34,2.34,0,0,1,.73.84A2.22,2.22,0,0,1,22.67,91v5.69H21Z"/><path class="cls-1" d="M29.49,90.59a.82.82,0,0,0-.57-.85,1.33,1.33,0,0,1-1.3.77,1.3,1.3,0,0,1-1.28-.77.82.82,0,0,0-.57.85v3c0,.13,0,.34-.05.61s-.07.62-.12,1h0c.05-.13.13-.32.24-.54l.4-.83.95-1.54h-1l.41-1.2H28.8v1.18l-2.69,4.39h-2V90.55a2.3,2.3,0,0,1,.17-.88A2,2,0,0,1,24.8,89a2.47,2.47,0,0,1,.81-.47,3.18,3.18,0,0,1,1.06-.17.63.63,0,0,0,.09.33.86.86,0,0,0,.21.26,1.11,1.11,0,0,0,.3.17,1,1,0,0,0,.35.06,1.13,1.13,0,0,0,.36-.06,1,1,0,0,0,.31-.17,1.09,1.09,0,0,0,.22-.26.73.73,0,0,0,.08-.33,2.76,2.76,0,0,1,1.9.66,2.06,2.06,0,0,1,.66,1.57v6.12H29.49Z"/><path class="cls-1" d="M29.49,85.33h1.66V87.6H29.49Z"/><path class="cls-1" d="M38,96a3.34,3.34,0,0,1-2.35.76A3.37,3.37,0,0,1,33.31,96a2.85,2.85,0,0,1-.82-2.21V91.52H36v1.37H34.12v.85c0,1.17.52,1.75,1.57,1.75s1.57-.58,1.57-1.75v-2.6a1.37,1.37,0,0,0-1.57-1.54c-1,0-1.49.43-1.57,1.3H32.49a2.32,2.32,0,0,1,.23-1.06,2.4,2.4,0,0,1,.65-.81,3.06,3.06,0,0,1,1-.52,4.21,4.21,0,0,1,1.32-.19,4.47,4.47,0,0,1,1.32.19,2.76,2.76,0,0,1,1,.55,2.4,2.4,0,0,1,.64.87,2.66,2.66,0,0,1,.23,1.15V93.8A2.83,2.83,0,0,1,38,96Z"/><path class="cls-1" d="M46.1,89.27a2,2,0,0,1,.53,1.42v6H45V92.58a3.5,3.5,0,0,1-.7.31,5.7,5.7,0,0,1-.94.22c-1,.16-1.53.56-1.49,1.21s.55,1,1.51,1a4.14,4.14,0,0,0,1.07-.17l-.61,1.51a7.07,7.07,0,0,1-.87.06,3.92,3.92,0,0,1-1.18-.16,2.58,2.58,0,0,1-.88-.49,2,2,0,0,1-.56-.77,2.54,2.54,0,0,1-.19-1c0-1.35.83-2.16,2.5-2.42l.9-.17a3.69,3.69,0,0,0,.57-.17c.55-.18.82-.46.82-.84,0-.73-.44-1.09-1.35-1.09s-1.44.42-1.44,1.25H40.33a2.22,2.22,0,0,1,1-1.87,3.71,3.71,0,0,1,2.26-.66l.47,0a3.55,3.55,0,0,1,.47.06l.6.12a.31.31,0,0,0,.23,0,.43.43,0,0,0,.18-.15.64.64,0,0,0,.1-.24.74.74,0,0,0,0-.3h1.83C47.44,88.55,47,89,46.1,89.27Z"/><path class="cls-1" d="M53.62,96a4.08,4.08,0,0,1-4.74,0,2.85,2.85,0,0,1-.82-2.21V91.52h3.49v1.37H49.69v.85c0,1.17.52,1.75,1.57,1.75s1.57-.58,1.57-1.75v-2.6a1.37,1.37,0,0,0-1.57-1.54c-1,0-1.49.43-1.57,1.3H48.06a2.32,2.32,0,0,1,.23-1.06,2.4,2.4,0,0,1,.65-.81,3,3,0,0,1,1-.52,4.15,4.15,0,0,1,1.31-.19,4.47,4.47,0,0,1,1.32.19,2.89,2.89,0,0,1,1,.55,2.66,2.66,0,0,1,.64.87,2.81,2.81,0,0,1,.22,1.15V93.8A2.86,2.86,0,0,1,53.62,96Z"/><path class="cls-1" d="M62,95.29a2.36,2.36,0,0,1-.66.81,2.86,2.86,0,0,1-1,.5,4.49,4.49,0,0,1-1.32.17,4.45,4.45,0,0,1-1.3-.17,2.9,2.9,0,0,1-1-.5,2.33,2.33,0,0,1-.65-.81,2.57,2.57,0,0,1-.23-1.1V88.42h1.65v5.71c0,.91.52,1.36,1.54,1.36s1.58-.45,1.58-1.36V88.42h1.65v5.77A2.57,2.57,0,0,1,62,95.29Z"/><path class="cls-1" d="M68.44,91A1.25,1.25,0,0,0,68,90a1.67,1.67,0,0,0-1.12-.36q-1.29,0-1.56,1l.71.59c-.47.1-.71.45-.71,1v3.17h1.15L66,96.67h-2.3V92.26a1,1,0,0,1,.67-1l-.86-.57a2.67,2.67,0,0,1,.36-.95,2.89,2.89,0,0,1,.72-.76,3.47,3.47,0,0,1,1-.5,4.39,4.39,0,0,1,1.3-.18,4.46,4.46,0,0,1,1.31.18,3,3,0,0,1,1,.52,2.34,2.34,0,0,1,.65.82,2.46,2.46,0,0,1,.23,1.1v5.73H68.44Z"/><path class="cls-1" d="M75,91.08c0-1-.41-1.48-1.22-1.48a1.19,1.19,0,0,0-.9.35,1.29,1.29,0,0,0-.32.9H70.81a2.3,2.3,0,0,1,.8-1.79A3.53,3.53,0,0,1,75.84,89a2.49,2.49,0,0,1,.74,1.93v5.75H75Z"/><path class="cls-1" d="M81.91,96.77a2.83,2.83,0,0,1-2.23-1v.86h-2A3.43,3.43,0,0,0,78,95.29V88.42h1.65V94a1.12,1.12,0,0,0,.16.6,1.72,1.72,0,0,0,.4.49,2,2,0,0,0,.56.33,1.76,1.76,0,0,0,.63.12,1.19,1.19,0,0,0,1.36-1.34V88.42h1.66v6.17C84.45,96,83.6,96.77,81.91,96.77Z"/><path class="cls-1" d="M86.3,96.67V88.42h1.64v7h1l-.5,1.28Z"/><path class="cls-1" d="M96.21,94.15c0,1.75-1.07,2.62-3.19,2.62a5.11,5.11,0,0,1-1.48-.19A3,3,0,0,1,90.47,96a2.21,2.21,0,0,1-.62-.93,3,3,0,0,1-.14-1.27h1.8a.62.62,0,0,0,0,.18v.15c0,.9.51,1.34,1.55,1.34s1.48-.37,1.48-1.11-.61-1.23-1.82-1.42a4.22,4.22,0,0,1-1.85-.66,1.87,1.87,0,0,1-.93-1.59,2.18,2.18,0,0,1,.21-1,2.26,2.26,0,0,1,.59-.75,2.94,2.94,0,0,1,1-.49,4.34,4.34,0,0,1,1.25-.17,4.74,4.74,0,0,1,1.29.17,2.83,2.83,0,0,1,1,.49,2.21,2.21,0,0,1,.63.79,2.67,2.67,0,0,1,.21,1.08H94.36c0-.81-.47-1.23-1.4-1.25a1.5,1.5,0,0,0-.95.25.84.84,0,0,0-.37.72.86.86,0,0,0,.57.8,6.24,6.24,0,0,0,1.36.35C95.33,92,96.21,92.84,96.21,94.15Z"/><path class="cls-1" d="M100.85,91.08c0-1-.4-1.48-1.22-1.48a1.15,1.15,0,0,0-.89.35,1.25,1.25,0,0,0-.33.9H96.7a2.27,2.27,0,0,1,.81-1.79,3,3,0,0,1,2.1-.74,3.09,3.09,0,0,1,2.13.67,2.48,2.48,0,0,1,.73,1.93v5.75h-1.62Z"/></svg>