<?xml version="1.0" encoding="utf-8"?>
<!-- Generator: Adobe Illustrator 25.1.0, SVG Export Plug-In . SVG Version: 6.00 Build 0)  -->
<svg version="1.1" id="Layer_1" xmlns="http://www.w3.org/2000/svg" xmlns:xlink="http://www.w3.org/1999/xlink" x="0px" y="0px"
	 viewBox="0 0 900 600" style="enable-background:new 0 0 900 600;" xml:space="preserve">
<style type="text/css">
	.st0{fill:#00247D;}
	.st1{fill:#FFFFFF;}
	.st2{clip-path:url(#SVGID_2_);}
	.st3{fill:#CF142B;}
</style>
<path class="st0" d="M-4.5,0.5v604h909.9V0.5H-4.5z"/>
<g>
	<path d="M-4.5,0.5l909.9,604 M905.4,0.5l-909.9,604"/>
	<polygon class="st1" points="885.1,658.5 450.5,370 15.8,658.5 -24.9,550.5 348.7,302.5 -24.9,54.5 15.8,-53.5 450.5,235 
		885.1,-53.5 925.8,54.5 552.2,302.5 925.8,550.5 	"/>
</g>
<g>
	<defs>
		<polygon id="SVGID_1_" points="450.5,302.5 905.4,302.5 905.4,604.5 450.5,604.5 -4.5,604.5 -4.5,302.5 -4.5,0.5 450.5,0.5 
			905.4,0.5 		"/>
	</defs>
	<clipPath id="SVGID_2_">
		<use xlink:href="#SVGID_1_"  style="overflow:visible;"/>
	</clipPath>
	<g class="st2">
		<path d="M-4.5,0.5l909.9,604 M905.4,0.5l-909.9,604"/>
		<polygon class="st3" points="891.8,640.5 450.5,347.5 9.1,640.5 -18.1,568.5 382.6,302.5 -18.1,36.5 9.1,-35.5 450.5,257.5 
			891.8,-35.5 919,36.5 518.3,302.5 919,568.5 		"/>
	</g>
</g>
<g>
	<path d="M450.5,0.5v604 M-4.5,302.5h909.9"/>
	<polygon class="st1" points="526.3,604.5 374.6,604.5 374.6,403.1 -4.5,403.1 -4.5,201.8 374.6,201.8 374.6,0.5 526.3,0.5 
		526.3,201.8 905.4,201.8 905.4,403.1 526.3,403.1 	"/>
</g>
<g>
	<path d="M450.5,0.5v604 M-4.5,302.5h909.9"/>
	<polygon class="st3" points="495.9,604.5 405,604.5 405,362.9 -4.5,362.9 -4.5,242.1 405,242.1 405,0.5 495.9,0.5 495.9,242.1 
		905.4,242.1 905.4,362.9 495.9,362.9 	"/>
</g>
</svg>
