<svg id="Layer_2" data-name="Layer 2" xmlns="http://www.w3.org/2000/svg" viewBox="0 0 16 16"><defs><style>.cls-1{fill:#33ffcb;}</style></defs><polygon class="cls-1" points="7.64 2.36 9.32 1.64 10.72 2.09 11.67 3.65 7.64 2.36"/><polygon class="cls-1" points="7.4 2.83 7.53 2.58 11.64 3.91 11.51 4.21 7.4 2.83"/><path class="cls-1" d="M12,.64h-.8A1.6,1.6,0,0,0,9.6,2.24v.08h.63V2.24a1,1,0,0,1,1-1H12a1,1,0,0,1,.95,1v8.84h.64V2.24A1.6,1.6,0,0,0,12,.64Z"/><path class="cls-1" d="M8.3,4.27a.13.13,0,0,1-.12-.13V3.77a.13.13,0,0,1,.12-.13.14.14,0,0,1,.13.13v.37a.14.14,0,0,1-.12.13Z"/><path class="cls-1" d="M8.36,7.41a.12.12,0,0,1-.12-.12l0-.79a.12.12,0,0,1,.13-.12.11.11,0,0,1,.12.12l0,.78a.13.13,0,0,1-.12.13Zm0-1.57a.13.13,0,0,1-.12-.12l0-.79a.13.13,0,1,1,.25,0l0,.78a.13.13,0,0,1-.12.13Z"/><path class="cls-1" d="M8.39,8.57a.12.12,0,0,1-.13-.12V8.08A.12.12,0,0,1,8.38,8a.13.13,0,0,1,.12.12v.37a.12.12,0,0,1-.12.13Z"/><path class="cls-1" d="M9.42,4.76a.12.12,0,0,1-.12-.12V4.27a.12.12,0,0,1,.12-.13.12.12,0,0,1,.13.12v.38a.12.12,0,0,1-.12.12Z"/><path class="cls-1" d="M9.48,7.91a.12.12,0,0,1-.12-.12l0-.79a.13.13,0,1,1,.25,0l0,.79a.13.13,0,0,1-.13.13Zm0-1.58a.12.12,0,0,1-.12-.12l0-.78a.12.12,0,0,1,.12-.13.12.12,0,0,1,.13.12v.79a.11.11,0,0,1-.12.12Z"/><path class="cls-1" d="M9.5,9.07A.13.13,0,0,1,9.38,9V8.57a.12.12,0,0,1,.12-.12h0a.12.12,0,0,1,.12.12v.37a.13.13,0,0,1-.12.13Z"/><path class="cls-1" d="M10.41,5.51a.13.13,0,0,1-.12-.12V5a.12.12,0,0,1,.12-.12.13.13,0,0,1,.13.12v.37a.13.13,0,0,1-.12.13Z"/><path class="cls-1" d="M10.47,8.65a.12.12,0,0,1-.12-.12l0-.79a.13.13,0,0,1,.13-.12.12.12,0,0,1,.12.12l0,.79a.12.12,0,0,1-.12.12Zm0-1.57A.12.12,0,0,1,10.32,7l0-.79a.12.12,0,0,1,.13-.12.12.12,0,0,1,.12.12l0,.78a.12.12,0,0,1-.12.13Z"/><path class="cls-1" d="M10.5,9.81a.12.12,0,0,1-.13-.12V9.32a.12.12,0,0,1,.12-.13.12.12,0,0,1,.12.12v.37a.12.12,0,0,1-.12.13Z"/><polygon class="cls-1" points="13.19 14.84 3.53 14.84 1.44 11.56 14.3 11.56 13.19 14.84"/><path class="cls-1" d="M14.38,10.92a.41.41,0,0,1-.42.4H1.14a.41.41,0,0,1-.42-.4h0a.41.41,0,0,1,.42-.4H14a.41.41,0,0,1,.42.4Z"/></svg>