<svg id="Layer_2" data-name="Layer 2" xmlns="http://www.w3.org/2000/svg" viewBox="0 0 16 16"><defs><style>.cls-1{fill:#33ffcb;}</style></defs><path class="cls-1" d="M3.63,7.93a.85.85,0,0,1-.4-.74A.81.81,0,0,1,4,6.34H6.6a.81.81,0,0,1,.75.85A.86.86,0,0,1,7,7.93H9a.86.86,0,0,1-.39-.74.81.81,0,0,1,.75-.85H12a.81.81,0,0,1,.76.85.85.85,0,0,1-.4.74H14l.11-2.72c0-.82-.08-1.26-1-1.26H2.9c-.93,0-1,.44-1,1.26L2,7.93Z"/><polygon class="cls-1" points="0.75 9.7 1.37 9.7 14.63 9.7 15.25 9.7 15.31 9.7 15.36 9.7 15.25 9.52 14 8.21 2 8.21 0.75 9.52 0.64 9.7 0.69 9.7 0.75 9.7"/><path class="cls-1" d="M15.36,10H.64a.61.61,0,0,0-.11.35v1.06c0,.66.23,1.19,1,1.19h.21V13c0,.37.29.5.64.5h.21c.35,0,.63-.13.63-.5v-.4h9.62V13c0,.37.28.5.63.5h.21c.36,0,.64-.13.64-.5v-.4h.21c.74,0,1-.53,1-1.19V10.33A.61.61,0,0,0,15.36,10Z"/></svg>