<svg id="Layer_2" data-name="Layer 2" xmlns="http://www.w3.org/2000/svg" xmlns:xlink="http://www.w3.org/1999/xlink" viewBox="0 0 42.63 42.63"><defs><style>.cls-1{fill:url(#linear-gradient);}.cls-2{fill:#fff;}.cls-3{fill:#54b848;}</style><linearGradient id="linear-gradient" x1="14.55" y1="1.71" x2="31.88" y2="51.94" gradientUnits="userSpaceOnUse"><stop offset="0" stop-color="#54b848"/><stop offset="0.19" stop-color="#4db147"/><stop offset="0.47" stop-color="#389d43"/><stop offset="0.8" stop-color="#177e3c"/><stop offset="1" stop-color="#006838"/></linearGradient></defs><circle class="cls-1" cx="21.32" cy="21.32" r="21.32"/><path class="cls-2" d="M21.32,11.05c6.05,0,11,3.93,11,8.78a7.49,7.49,0,0,1-1.64,4.62,2,2,0,0,1-.21.26h0a9.56,9.56,0,0,1-1.19,1.19c-3,2.81-8,6.14-8.69,5.63s.94-2.64-.81-3l-.36-.05h0c-5.14-.73-9-4.32-9-8.65C10.35,15,15.26,11.05,21.32,11.05Z"/><path class="cls-3" d="M15,22.64h2.21a.58.58,0,0,0,.58-.58v0a.58.58,0,0,0-.58-.58H15.57V17.82a.57.57,0,0,0-.57-.57H15a.58.58,0,0,0-.57.57v4.24a.58.58,0,0,0,.57.58ZM28.66,20v-.05a.57.57,0,0,0-.57-.57H26.5v-.91h1.59a.58.58,0,0,0,.57-.57v-.05a.58.58,0,0,0-.57-.57H25.88a.58.58,0,0,0-.58.57v4.24a.58.58,0,0,0,.58.58h2.21a.58.58,0,0,0,.57-.58v0a.58.58,0,0,0-.57-.58H26.5v-.9h1.59a.58.58,0,0,0,.57-.57Zm-4.25,2.49h0a.56.56,0,0,0,.16-.4V17.82a.58.58,0,0,0-.57-.57H24a.58.58,0,0,0-.57.57v2.49l-2.07-2.77a.57.57,0,0,0-.49-.29h-.05a.57.57,0,0,0-.57.57v4.24a.57.57,0,0,0,.57.58h.05a.58.58,0,0,0,.57-.58V19.53l2.08,2.84,0,.06h0a.48.48,0,0,0,.22.16.59.59,0,0,0,.22.05H24a.6.6,0,0,0,.27-.07.71.71,0,0,0,.14-.1Zm-5.64.17h.05a.58.58,0,0,0,.57-.58V17.82a.58.58,0,0,0-.57-.57h-.05a.58.58,0,0,0-.57.57v4.24A.58.58,0,0,0,18.77,22.64Z"/></svg>