<svg id="Layer_2" data-name="Layer 2" xmlns="http://www.w3.org/2000/svg" xmlns:xlink="http://www.w3.org/1999/xlink" viewBox="0 0 42.63 42.63"><defs><style>.cls-1{fill:url(#linear-gradient);}.cls-2{fill:#fff;}</style><linearGradient id="linear-gradient" x1="6.62" y1="35.16" x2="36.69" y2="6.84" gradientUnits="userSpaceOnUse"><stop offset="0" stop-color="#f6921e"/><stop offset="0.08" stop-color="#f58b1e"/><stop offset="0.19" stop-color="#f4761f"/><stop offset="0.33" stop-color="#f15421"/><stop offset="0.49" stop-color="#ed2623"/><stop offset="0.52" stop-color="#ec1c24"/><stop offset="1" stop-color="#ec297b"/></linearGradient></defs><circle class="cls-1" cx="21.32" cy="21.32" r="21.32"/><path class="cls-2" d="M27.94,32.61H14.69a5.51,5.51,0,0,1-5.5-5.5V15.52a5.51,5.51,0,0,1,5.5-5.5H27.94a5.51,5.51,0,0,1,5.5,5.5V27.11A5.51,5.51,0,0,1,27.94,32.61ZM14.69,12.85A2.68,2.68,0,0,0,12,15.52V27.11a2.68,2.68,0,0,0,2.67,2.67H27.94a2.68,2.68,0,0,0,2.67-2.67V15.52a2.68,2.68,0,0,0-2.67-2.67Z"/><path class="cls-2" d="M21.29,27.41a5.88,5.88,0,1,1,5.87-5.88A5.89,5.89,0,0,1,21.29,27.41Zm0-8.91a3,3,0,1,0,3,3A3,3,0,0,0,21.29,18.5Z"/><circle class="cls-2" cx="27.46" cy="15.45" r="1.38"/></svg>