<svg id="Layer_2" data-name="Layer 2" xmlns="http://www.w3.org/2000/svg" viewBox="0 0 86.87 86.87"><defs><style>.cls-1{fill:#fe4b6d;}.cls-2{fill:#fff;}</style></defs><circle class="cls-1" cx="43.43" cy="43.43" r="43.43"/><path class="cls-2" d="M53.06,29.15a8.72,8.72,0,0,1,2.23,6.05V60.67h-7V43.26a16.17,16.17,0,0,1-2.94,1.31,23.66,23.66,0,0,1-4,.92q-6.6,1-6.35,5.19T41.4,55a16.75,16.75,0,0,0,4.54-.73l-2.61,6.43a29.82,29.82,0,0,1-3.69.26,16.59,16.59,0,0,1-5-.71,10.44,10.44,0,0,1-3.78-2.06,8.79,8.79,0,0,1-2.35-3.28,10.89,10.89,0,0,1-.82-4.33q0-8.65,10.64-10.34c1.54-.25,2.83-.5,3.86-.73a15.12,15.12,0,0,0,2.4-.68c2.34-.77,3.52-2,3.52-3.6q0-4.64-5.75-4.64c-4.09,0-6.13,1.78-6.13,5.32H28.49a9.48,9.48,0,0,1,4-8,16,16,0,0,1,9.65-2.78c.66,0,1.32,0,2,.06a13.56,13.56,0,0,1,2,.28l2.53.51a1.6,1.6,0,0,0,1-.13,1.81,1.81,0,0,0,.76-.64,3,3,0,0,0,.45-1A3.4,3.4,0,0,0,51,22.89h7.81C58.77,26.09,56.86,28.18,53.06,29.15Z"/><path class="cls-2" d="M70.18,56.73a4.4,4.4,0,1,1-8.8,0,4.26,4.26,0,0,1,4.42-4.42,4.29,4.29,0,0,1,4.38,4.42Z"/></svg>