<svg id="Layer_2" data-name="Layer 2" xmlns="http://www.w3.org/2000/svg" viewBox="0 0 118.95 44.15"><defs><style>.cls-1{fill:#ed1c24;}.cls-2{fill:#4d4d4d;}</style></defs><polygon class="cls-1" points="46.2 8.35 46.2 8.32 42.36 8.32 39.65 8.32 31.75 8.32 30.37 8.32 19.77 8.32 19.77 21.75 31.75 21.75 31.75 14.28 39 14.28 39 36.76 31.81 36.76 31.81 27.37 19.83 27.37 19.83 36.76 11.69 36.76 11.69 0 4.84 3.51 4.84 38.55 4.85 38.55 4.85 44.15 39 44.15 46.2 44.15 46.4 44.15 46.4 8.35 46.2 8.35"/><path class="cls-1" d="M60.93,25.76c-2.8,0-4.5-2.2-4.5-4.84s1.7-4.82,4.5-4.82a4.5,4.5,0,0,1,4.51,4.82C65.44,23.56,63.73,25.76,60.93,25.76Zm0-8.21c-1.94,0-2.72,1.66-2.72,3.37S59,24.3,60.93,24.3s2.73-1.66,2.73-3.38S62.87,17.55,60.93,17.55Z"/><path class="cls-1" d="M72.63,25.76c-2.31,0-3.86-1.18-3.86-3.57V16.31h1.76v5.35c0,1.2.06,2.57,2.1,2.57s2.1-1.37,2.1-2.57V16.31h1.78v5.88C76.51,24.58,74.94,25.76,72.63,25.76Z"/><path class="cls-1" d="M83.7,25.76c-2.14,0-3.88-1-3.92-3.39h1.77c0,1.43,1,1.93,2.27,1.93s1.86-.64,1.86-1.29A1,1,0,0,0,85,22c-.64-.23-1.47-.41-2.74-.74a2.39,2.39,0,0,1-2.1-2.39c0-1.86,1.75-2.74,3.45-2.74,2,0,3.63,1,3.63,3H85.42c-.07-1.19-.84-1.58-1.9-1.58-.72,0-1.62.23-1.62,1.09,0,.59.43.94,1,1.1.13,0,2.19.55,2.66.69a2.51,2.51,0,0,1,1.86,2.39C87.46,24.91,85.58,25.76,83.7,25.76Z"/><path class="cls-1" d="M90.83,25.54V16.31h1.79v9.23Zm1.79-9.23H90.83v9.23h1.79Zm-1.79,9.23V16.31h1.79v9.23Z"/><path class="cls-1" d="M102.3,25.52,98.16,19v6.56H96.48V16.31l1.8,0,4.13,6.56V16.31h1.71v9.23Z"/><path class="cls-1" d="M115.05,25.54l-.23-1a3.43,3.43,0,0,1-2.75,1.18c-2.8,0-4.5-2.2-4.5-4.84s1.7-4.82,4.5-4.82c2.06,0,3.8,1,4,3.25h-1.72a2.14,2.14,0,0,0-2.32-1.8c-1.94,0-2.72,1.66-2.72,3.37s.78,3.37,2.72,3.38A2.25,2.25,0,0,0,114.58,22h-2.45V20.6h4.08v4.94Z"/><path class="cls-2" d="M60.91,38.83a3.77,3.77,0,0,1-3.76-4,3.77,3.77,0,1,1,7.53,0A3.77,3.77,0,0,1,60.91,38.83Zm0-6.87c-1.62,0-2.27,1.39-2.27,2.82s.65,2.83,2.27,2.83,2.28-1.39,2.28-2.83S62.54,32,60.91,32Z"/><path class="cls-2" d="M74.26,38.65V33l-2.05,5.61H71l-2-5.64v5.64h-1.4V30.93h2l2.08,5.83,2.05-5.83h2v7.72Z"/><path class="cls-2" d="M78.94,38.65V30.93h5.69v1.28h-4.2v1.85h3.89v1.21H80.43v2.1h4.28v1.28Z"/><path class="cls-2" d="M88.23,38.73a.87.87,0,1,1,.87-.87A.87.87,0,0,1,88.23,38.73Z"/><path class="cls-2" d="M97,38.63l-3.45-5.47v5.49H92.17V30.93h1.51l3.45,5.49v-5.5h1.43v7.72Z"/><path class="cls-2" d="M101.8,38.65V30.93h5.69v1.28H103.3v1.85h3.88v1.21H103.3v2.1h4.27v1.28Z"/><path class="cls-2" d="M113.59,32.21v6.44H112.1V32.21h-2.45V30.93h6.4v1.28Z"/><polygon class="cls-1" points="0 5.99 0 44.14 1.68 44.14 1.68 5.13 0 5.99"/><polygon class="cls-1" points="2.38 4.77 2.38 44.14 4.06 44.14 4.06 3.91 2.38 4.77"/></svg>