<svg id="Layer_2" data-name="Layer 2" xmlns="http://www.w3.org/2000/svg" viewBox="0 0 86.87 86.87"><defs><style>.cls-1{fill:#29abe2;}.cls-2{fill:#fff;}</style></defs><circle class="cls-1" cx="43.43" cy="43.43" r="43.43"/><path class="cls-2" d="M19.42,37.26h3.17V50.39h5.79v2.25h-9Z"/><path class="cls-2" d="M41.15,46.8q0,3.42-1.4,4.87A5.45,5.45,0,0,1,35.68,53a5.61,5.61,0,0,1-4.11-1.33q-1.42-1.48-1.43-4.87V43.09a11.15,11.15,0,0,1,.34-2.9,4.57,4.57,0,0,1,1.06-1.95,5.39,5.39,0,0,1,4.07-1.33,5.57,5.57,0,0,1,4.11,1.33q1.43,1.48,1.43,4.85ZM38,42.66c0-2.34-.75-3.51-2.27-3.51s-2.31,1.17-2.31,3.51v4.51q0,3.51,2.28,3.51c1.54,0,2.3-1.17,2.3-3.51Z"/><path class="cls-2" d="M51.87,50.9a2.74,2.74,0,0,1-.94,1.31A2.93,2.93,0,0,1,49,53a5.61,5.61,0,0,1-4.11-1.33q-1.42-1.48-1.43-4.87V43.09a11.15,11.15,0,0,1,.34-2.9,4.57,4.57,0,0,1,1.06-1.95,5.39,5.39,0,0,1,4.07-1.33A5.91,5.91,0,0,1,52.84,38a5.68,5.68,0,0,1,1.61,4.08H51.31c-.09-1.95-.85-2.93-2.27-2.93s-2.32,1.17-2.32,3.51v4.51c0,2.34.76,3.51,2.29,3.51s2.3-1.17,2.3-3.51v-.56H49.14V44.37h5.34v8.27H51.87Z"/><path class="cls-2" d="M68.06,46.8c0,2.28-.46,3.9-1.4,4.87A5.42,5.42,0,0,1,62.59,53a5.59,5.59,0,0,1-4.1-1.33c-1-1-1.43-2.61-1.43-4.87V43.09a10.74,10.74,0,0,1,.34-2.9,4.47,4.47,0,0,1,1.06-1.95,5.36,5.36,0,0,1,4.07-1.33,5.56,5.56,0,0,1,4.1,1.33c1,1,1.43,2.61,1.43,4.85ZM64.9,42.66q0-3.51-2.28-3.51c-1.53,0-2.3,1.17-2.3,3.51v4.51c0,2.34.76,3.51,2.27,3.51s2.31-1.17,2.31-3.51Z"/></svg>